# xmcd
#
# Track frame offsets:
#	150
#	20490
#	40455
#	56403
#	76006
#	93585
#	112101
#	126324
#	141197
#	156126
#	170580
#	184892
#	205899
#	224546
#	243062
#	257768
#	271996
#
# Disc length: 3771 seconds
#
# Revision: 4220468581
# Processed by: cddbd v1.5.2PL0 Copyright (c) Steve Scherf et al.
# Submitted via: EZCDAudioConverter 8.5.0.1
#
DISCID=f60eb911
DTITLE=Various Artist - Now That's What I Call The U.S.A.
DYEAR=2010
DGENRE=Country
TTITLE0=Brooks and Dunn - Only In America
TTITLE1=Montgomery Gentry - My Town
TTITLE2=Carrie Underwood - All-American Girl
TTITLE3=Rascal Flatts - Fast Cars And Freedom
TTITLE4=Kenny Chesney - Back Where I Come From
TTITLE5=Tim McGraw - If You're Reading This
TTITLE6=Phil Vassar - American Child
TTITLE7=Alabama - Born Country
TTITLE8=Alan Jackson - All American Country Boy
TTITLE9=Eric Church - Guys Like Me
TTITLE10=Luke Bryan - Country Man
TTITLE11=Chely Wright - The Bumper Of My S.U.V.
TTITLE12=Trace Adkins - Arlington
TTITLE13=Billy Ray Cyrus - Some Gave All
TTITLE14=4troops - Courtesy Of The Red White And Blue
TTITLE15=Lee Greenwood - God Bless The U.S.A.
TTITLE16=4troops - Star-Spangled Banner
EXTD=
EXTT0=
EXTT1=
EXTT2=
EXTT3=
EXTT4=
EXTT5=
EXTT6=
EXTT7=
EXTT8=
EXTT9=
EXTT10=
EXTT11=
EXTT12=
EXTT13=
EXTT14=
EXTT15=
EXTT16=
PLAYORDER=
